# xmcd
#
# Track frame offsets: 
#        150
#        12312
#        27475
#        40717
#        51877
#        65265
#        79197
#        90202
#        105397
#        117970
#        134745
#        147482
#        160482
#        175492
#        194635
#        207407
#
# Disc length: 3047 seconds
#
# Revision: 5
# Processed by: cddbd v1.5.2PL0 Copyright (c) Steve Scherf et al.
# Submitted via: ExactAudioCopy v0.95b3
#
DISCID=e50be510
DTITLE=Conway Twitty - The #1 Hits Collection [CD2]
DYEAR=2000
DGENRE=
TTITLE0=Linda On My Mind
TTITLE1=Touch The Hand
TTITLE2=Feelins'
TTITLE3=This Time I've Hurt Her More Than She Loves Me
TTITLE4=After All The Good Is Gone
TTITLE5=The Games That Daddies Play
TTITLE6=I Can't Beleive She Gives It All To Me
TTITLE7=Play, Guitar, Play
TTITLE8=I've Already Loved You In My Mind
TTITLE9=Don't Take It Away
TTITLE10=I May Never Get To Heaven
TTITLE11=Happy Birthday Darlin'
TTITLE12=I'd Love To Lay You Down
TTITLE13=Rest Your Love On Me
TTITLE14=Tight Fittin' Jeans
TTITLE15=Red Neckin' Love Makin' Night
EXTD=
EXTT0=
EXTT1=
EXTT2=
EXTT3=
EXTT4=
EXTT5=
EXTT6=
EXTT7=
EXTT8=
EXTT9=
EXTT10=
EXTT11=
EXTT12=
EXTT13=
EXTT14=
EXTT15=
PLAYORDER=
